<svg width="150" height="32" viewBox="0 0 150 32" fill="none" xmlns="http://www.w3.org/2000/svg">
<path fill-rule="evenodd" clip-rule="evenodd" d="M91.3567 18.7103H88.6046V31.7701H91.3733V18.7131L91.3567 18.7103ZM76.9761 18.7103H74.2075V31.7701H76.9761V26.3661H82.4498V31.7701H85.2185V18.7103H83.8702C83.0919 18.7103 82.4609 19.3415 82.4609 20.1201V23.84H76.9761V18.7103ZM56.906 18.7103H54.1622V31.7701H56.9309L56.906 18.7103ZM46.2272 21.2641C48.1459 21.2641 49.0595 21.818 49.0595 23.1448C49.0595 24.4716 48.1099 25.0837 46.2272 25.0837H44.195V21.2641H46.2272ZM46.7117 18.7103H41.4263V31.7701H44.195V27.6347H46.7089C48.2178 27.6347 49.4471 27.2248 50.3968 26.3855C51.34 25.5556 51.8596 24.3451 51.8116 23.0894C51.8116 21.7451 51.3502 20.6833 50.4273 19.9041C49.4942 19.1008 48.2677 18.7103 46.72 18.7103H46.7117ZM49.3226 9.77201C49.3226 10.8799 48.5224 11.2788 46.9802 11.2788H44.195V8.32893H47.0412C48.5501 8.32893 49.3115 8.81365 49.3115 9.7637L49.3226 9.77201ZM48.9958 4.66166C48.9958 5.55632 48.2705 6.00226 46.8363 6.00226H44.195V3.34321L46.7255 3.34321C48.3452 3.34321 48.9958 3.69775 48.9958 4.68382V4.66166ZM50.4494 7.04926C51.299 6.43756 51.7987 5.45118 51.7894 4.40406C51.7894 2.0774 50.0203 0.80327 47.2848 0.80327L41.4263 0.80327V13.8298H47.606C48.9654 13.8298 50.0452 13.4753 50.8619 12.7884C51.6829 12.1071 52.1436 11.0851 52.1106 10.0185C52.1106 8.80811 51.5569 7.82205 50.4494 7.04095V7.04926ZM61.2473 8.80811H58.0079L59.6276 4.54532L61.2473 8.80811ZM63.1853 13.8354H66.0509L61.2971 1.68131C61.0868 1.13532 60.5613 0.776005 59.9764 0.77833L58.3152 0.77833L53.2042 13.8298H56.0698L57.0942 11.2594L62.1388 11.2594L63.1853 13.8354ZM66.2641 18.5109C64.3067 18.5109 62.687 19.1258 61.3857 20.375C60.0844 21.6242 59.4227 23.239 59.4227 25.2693C59.4227 27.2996 60.0761 28.9005 61.3802 30.1303C62.6842 31.3601 64.3593 31.975 66.3638 31.975C68.5621 31.975 70.3313 31.1552 71.6714 29.5154L69.8274 27.5599C69.0265 28.7277 67.6905 29.4121 66.2752 29.3797C65.2148 29.4112 64.1869 29.0115 63.4262 28.2718C62.6648 27.5267 62.2717 26.5046 62.2717 25.225C62.2717 23.9453 62.6648 22.9537 63.4262 22.228C64.1427 21.5139 65.1143 21.1151 66.1257 21.12C67.0734 21.113 67.9963 21.423 68.7476 22.0009C69.3104 22.4293 70.1043 22.3698 70.5971 21.8624L71.4526 20.9899C70.2105 19.3906 68.2823 18.4776 66.2586 18.5302L66.2641 18.5109ZM76.9208 13.8298H79.4375V0.77834L76.6688 0.77834V9.62244L71.8236 1.46526C71.571 1.03884 71.112 0.77764 70.6165 0.77834L68.0831 0.77834V13.8298H70.8518V5.02451L75.7081 13.1457C75.963 13.5694 76.4209 13.8289 76.9152 13.8298H76.9208ZM85.9494 10.3288C85.1881 9.58366 84.7977 8.56159 84.7977 7.28193C84.7977 6.00226 85.1881 5.01066 85.9494 4.28496C86.666 3.57086 87.6375 3.17209 88.6489 3.17702C89.6073 3.17054 90.5399 3.48771 91.2958 4.07722C91.8563 4.49042 92.6364 4.42282 93.1176 3.91934L93.9731 3.04684C92.735 1.44402 90.8088 0.525752 88.7846 0.573374C86.8299 0.573374 85.213 1.18828 83.9089 2.43471C82.6049 3.68113 81.9542 5.30149 81.9542 7.33178C81.9542 9.36208 82.6076 10.963 83.9089 12.1929C85.2102 13.4227 86.888 14.0348 88.8787 14.0348C91.0734 14.0348 92.8416 13.2158 94.1835 11.5779L92.3396 9.62244C91.5438 10.7881 90.2147 11.4743 88.804 11.4478C87.7436 11.4793 86.7157 11.0795 85.955 10.3398L85.9494 10.3288ZM97.2927 18.7214H94.7594V31.7812H97.5281V22.9592L102.387 31.0832C102.64 31.5092 103.099 31.7702 103.594 31.7701H106.111V18.7103H103.362V27.5738L98.4999 19.4083C98.2464 18.9827 97.7879 18.7218 97.2927 18.7214ZM106.213 7.29578C106.245 8.37519 105.866 9.42632 105.153 10.2373C104.444 11.0418 103.408 11.48 102.337 11.4284C101.127 11.4284 100.178 11.0378 99.4717 10.2373C98.758 9.42689 98.379 8.37537 98.4113 7.29578C98.3818 6.22164 98.7608 5.17632 99.4717 4.37082C100.204 3.56931 101.253 3.13321 102.337 3.17979C103.394 3.15286 104.408 3.5962 105.106 4.39021C105.836 5.17973 106.232 6.22066 106.213 7.29578ZM107.044 12.1347C108.344 10.8666 109.053 9.11139 108.999 7.29578C109.053 5.48993 108.343 3.74498 107.044 2.4901C105.776 1.2235 104.045 0.530951 102.254 0.573374C100.464 0.539777 98.737 1.23788 97.4725 2.50651C96.2081 3.77515 95.5152 5.50466 95.554 7.29578C95.5035 9.09181 96.1919 10.8299 97.4585 12.1038C98.725 13.3777 100.459 14.0757 102.254 14.0348C104.042 14.0755 105.77 13.39 107.044 12.1347ZM112.64 28.2718C111.875 27.5211 111.474 26.4991 111.474 25.225C111.474 23.9508 111.864 22.9537 112.628 22.228C113.344 21.5128 114.316 21.1139 115.328 21.12C116.287 21.1118 117.22 21.4292 117.975 22.0202C118.536 22.4351 119.318 22.3674 119.799 21.8624L120.655 20.9899C119.412 19.3899 117.483 18.4767 115.458 18.5302C113.503 18.5302 111.884 19.1452 110.58 20.3944C109.276 21.6435 108.625 23.2639 108.625 25.2942C108.625 27.3245 109.276 28.9255 110.58 30.1553C111.884 31.3851 113.559 32 115.563 32C117.758 32 119.527 31.1801 120.871 29.5404L119.027 27.5849C118.223 28.7386 116.894 29.4125 115.489 29.3797C114.428 29.4112 113.4 29.0115 112.64 28.2718ZM131.66 31.7756H134.415V18.7103H133.07C132.291 18.7103 131.66 19.3415 131.66 20.1201V23.84H126.187V18.7103H123.418V31.7701H126.187V26.3661H131.66V31.7756ZM144.673 26.7456H141.434L143.054 22.48L144.673 26.7456ZM149.48 31.7756L144.726 19.6077C144.516 19.0672 143.996 18.7109 143.416 18.7103H141.733L136.63 31.7701L139.499 31.7701L140.523 29.1997H145.567L146.611 31.7701L149.48 31.7756Z" fill="#0F265C"/>
<path fill-rule="evenodd" clip-rule="evenodd" d="M32.3271 0V31.9999H11.1428C5.24408 31.9999 0.479736 27.2128 0.479736 21.2858L0.479736 0L32.3271 0ZM27.0239 5.32857L16.4176 5.32857V10.1442L22.2312 10.1442V15.9857H27.0239V5.32857Z" fill="#FFDD00"/>
<path fill-rule="evenodd" clip-rule="evenodd" d="M27.0258 5.33325L16.4194 5.33325V10.1489H22.2331V15.9904H27.0258V5.33325Z" fill="#0F265C"/>
</svg>
